<svg xmlns="http://www.w3.org/2000/svg" viewBox="0 0 512 512">
  <defs>
    <linearGradient id="bg" x1="0" x2="1" y1="0" y2="1">
      <stop offset="0" stop-color="#11141f"/>
      <stop offset="1" stop-color="#030407"/>
    </linearGradient>
    <linearGradient id="boom" x1="0" x2="1" y1="0" y2="1">
      <stop offset="0" stop-color="#ff405f"/>
      <stop offset="0.5" stop-color="#ff9345"/>
      <stop offset="1" stop-color="#ffd369"/>
    </linearGradient>
  </defs>
  <rect width="512" height="512" rx="112" fill="url(#bg)"/>
  <path d="M80 216 42 92l121 43 61-70 48 79 94-86 17 119 111-30-66 105 66 105-116-30-42 117-70-87-96 89-17-116-111 39 46-112Z" fill="url(#boom)"/>
  <path d="M123 226h48c30 0 48 17 48 43 0 27-18 45-48 45h-48V226Zm45 56c10 0 17-5 17-13s-7-12-17-12h-12v25h12Zm69-56h42l21 45 21-45h42v88h-32v-38l-18 38h-26l-18-38v38h-32v-88Z" fill="#19080c"/>
  <circle cx="96" cy="94" r="14" fill="#56e7ff"/>
  <circle cx="425" cy="396" r="18" fill="#ffd369"/>
  <circle cx="404" cy="116" r="10" fill="#b69cff"/>
</svg>
